<svg xmlns="http://www.w3.org/2000/svg" viewBox="0 0 674.8 317.91"><defs><style>.cls-1{fill:#231f20;}.cls-2{fill:#8a2432;}.cls-3{fill:none;stroke:#8a2432;stroke-miterlimit:10;stroke-width:2.67px;}</style></defs><title>UMass-logo</title><g id="Layer_2" data-name="Layer 2"><g id="Layer_1-2" data-name="Layer 1"><path class="cls-1" d="M197.53,225.46a62.2,62.2,0,0,1-3.08,8.33,50.44,50.44,0,0,1-9.95,1.41c-13.46,0-19.36-9.3-19.36-17.9,0-11.41,8.76-18.87,20.82-18.87a42.69,42.69,0,0,1,9.57,1.46c.43,3,.76,5.24,1.08,8.11l-1.57.43c-1.46-5.73-4.7-8.05-10.54-8.05-9,0-13.84,7.62-13.84,15.84,0,10.11,6,17,14.17,17,5.51,0,8.43-3,11.13-8.33Z"/><path class="cls-1" d="M224.67,222.17c0,8.7-6.38,12.86-11.73,12.86a11.7,11.7,0,0,1-11.84-11.95c0-8.92,6.92-13,11.9-13A11.72,11.72,0,0,1,224.67,222.17Zm-18.54-.82c0,6.82,2.92,11.9,7.41,11.9,3.35,0,6.11-2.49,6.11-9.89,0-6.28-2.55-11.47-7.36-11.47C209.05,211.89,206.13,215.25,206.13,221.35Z"/><path class="cls-1" d="M227.86,234.39V233c3.41-.33,3.9-.65,3.9-4.22V203.19c0-3.68-.33-3.79-3.73-4.11v-1.3a41.23,41.23,0,0,0,8-1.89v32.87c0,3.57.43,3.89,3.89,4.22v1.41Z"/><path class="cls-1" d="M241.92,234.39V233c3.41-.33,3.9-.65,3.9-4.22V203.19c0-3.68-.33-3.79-3.73-4.11v-1.3a41.23,41.23,0,0,0,8-1.89v32.87c0,3.57.43,3.89,3.89,4.22v1.41Z"/><path class="cls-1" d="M276.53,229.84c-3.41,4.22-7.14,5.19-8.82,5.19-6.65,0-10.54-5.4-10.54-11.51a14,14,0,0,1,3.57-9.46,11.15,11.15,0,0,1,7.89-3.95h.06a8.4,8.4,0,0,1,8.11,8.22c0,1.08-.22,1.51-1.25,1.73-.86.16-7.67.7-14.16.92.05,7.35,4.32,10.38,8.11,10.38a9,9,0,0,0,6.22-2.71Zm-14.87-11.08c3,0,6,0,9.19-.16,1,0,1.3-.27,1.3-1.08.05-2.82-1.79-5.41-4.81-5.41C264.9,212.11,262.47,214.38,261.66,218.76Z"/><path class="cls-1" d="M303.83,211.19A8.49,8.49,0,0,1,301.4,214l-3.08-.16a7.41,7.41,0,0,1,1.62,4.75c0,5.84-4.87,8.65-9.46,8.65a15.18,15.18,0,0,1-2.76-.27,3.72,3.72,0,0,0-1.62,2.27c0,1,1,2.06,3.4,2.06,2,0,3.9-.06,5.74-.06,3.35,0,7.73,1.09,7.73,6.39,0,5.46-6.27,10.7-13.47,10.7-6.05,0-9.35-3.51-9.4-6.6a4.2,4.2,0,0,1,1.29-3c1.09-1.08,3.2-2.76,4.49-3.79a7.21,7.21,0,0,1-4-3,3.89,3.89,0,0,1-.59-2.27,11.6,11.6,0,0,0,4.75-3.3,7.8,7.8,0,0,1-4.75-7.25c0-6.11,5.51-9,9.68-9h0a10,10,0,0,1,5.19,1.46c2.59-.16,5.35-.49,7.35-.81Zm-17,24.93c-1.4,1.19-2.48,2.7-2.48,4.21,0,3,3.14,5.19,7.14,5.19,5.13,0,7.78-2.65,7.78-6a4,4,0,0,0-2.43-3.84,14.09,14.09,0,0,0-5.3-.7C289.07,235,287.83,235.31,286.85,236.12Zm-.91-17.9c0,4.22,2.11,7.24,5.08,7.24,2.38-.05,4.49-2.16,4.49-6.43s-2-7.25-5.14-7.25C288.1,211.78,285.94,214.06,285.94,218.22Z"/><path class="cls-1" d="M325.57,229.84c-3.41,4.22-7.14,5.19-8.81,5.19-6.65,0-10.55-5.4-10.55-11.51a14,14,0,0,1,3.57-9.46,11.16,11.16,0,0,1,7.9-3.95h.05a8.4,8.4,0,0,1,8.11,8.22c0,1.08-.22,1.51-1.24,1.73s-7.68.7-14.17.92c.06,7.35,4.33,10.38,8.11,10.38a9,9,0,0,0,6.22-2.71ZM310.7,218.76c3,0,6.06,0,9.19-.16,1,0,1.3-.27,1.3-1.08.05-2.82-1.79-5.41-4.81-5.41C314,212.11,311.51,214.38,310.7,218.76Z"/><path class="cls-1" d="M355.58,210.16c4.43,0,7.14,3.08,7.14,8.44a17.39,17.39,0,0,1-5.79,13,13.75,13.75,0,0,1-8.32,3.4c-5.14,0-7.14-4.05-7.14-8.38,0-7,3.73-12.38,8.22-14.7a13.12,13.12,0,0,1,5.84-1.79Zm-1.78,2.11a4.85,4.85,0,0,0-2.06.43c-2.11,1-5.73,5.36-5.73,13.63,0,4,1.68,6.54,4.54,6.54a5.15,5.15,0,0,0,1.79-.32c2.86-1.25,5.89-7,5.84-13.84,0-4.38-1.9-6.44-4.33-6.44Z"/><path class="cls-1" d="M372.18,211.14c.81-4.11,2.16-8.22,4.6-10.93s5.56-4.32,7.73-4.32c1.89,0,3.3,1.35,3.24,2.27a3.53,3.53,0,0,1-1.35,2.27.94.94,0,0,1-1.35-.05,4.8,4.8,0,0,0-3.41-1.9c-2,0-3.67,2.6-5.3,12.66h6.11l-1.08,1.67-5.41.54c-1,6-1.56,9.09-2.81,15.09-1.89,9.3-3.89,13.35-6.86,16.43-2.38,2.55-4.65,3.41-6.06,3.41-1.57,0-3.4-1.14-3.4-2.32a3.83,3.83,0,0,1,1.51-2.33.67.67,0,0,1,1,.05,5.59,5.59,0,0,0,3.4,1.36A3.21,3.21,0,0,0,365.1,244c.7-.76,1.94-3,3.78-13.52,1.25-7.41,2-11.84,2.87-17.14h-4.44l-.16-.65,1.62-1.51Z"/><path class="cls-1" d="M400.89,234.39v-1.52c4.44-.32,4.87-.65,4.87-5.24V206c0-4.6-.43-4.92-4.87-5.24v-1.52h14.33v1.52c-4.44.32-4.87.64-4.87,5.24v21.63c0,4.65.43,4.92,4.87,5.24v1.52Z"/><path class="cls-1" d="M434.68,234.39V233c3.2-.33,3.57-.76,3.57-4.49v-9c0-3.73-1.29-6.16-4.92-6.16-2.16,0-4.27,1.35-5.89,2.76v12.7c0,3.68.32,3.89,3.52,4.22v1.41H419.22V233c3.68-.38,3.95-.65,3.95-4.22V217.62c0-3.46-.33-3.67-3.25-4.21v-1.25a34.73,34.73,0,0,0,7.52-2.16v4.27c1.08-.81,2.27-1.62,3.62-2.54a8.33,8.33,0,0,1,4.49-1.62c4.33,0,7,3,7,8.22v10.43c0,3.68.33,3.89,3.47,4.22v1.41Z"/><path class="cls-1" d="M453.07,210.76v-1.14a15.25,15.25,0,0,1,.6-4.49,13.13,13.13,0,0,1,4.16-6.38,11.51,11.51,0,0,1,5.95-2.86,6.08,6.08,0,0,1,4.27,1.84,1.74,1.74,0,0,1,.27,1.89,3.16,3.16,0,0,1-1,1.3,1,1,0,0,1-1.46-.16,6.4,6.4,0,0,0-4.38-2,3.21,3.21,0,0,0-2.87,1.57c-.7,1.08-1.29,3.68-1.24,8.27v2.17h6.38a2,2,0,0,1-.54,2.16h-5.84v15.52c0,4,.38,4.16,4.65,4.59v1.36H449.23V233c3.46-.33,3.84-.59,3.84-4.16v-15.9h-3.78l-.22-.59,1.46-1.57Z"/><path class="cls-1" d="M489.57,222.17c0,8.7-6.38,12.86-11.74,12.86A11.7,11.7,0,0,1,466,223.08c0-8.92,6.92-13,11.89-13A11.72,11.72,0,0,1,489.57,222.17ZM471,221.35c0,6.82,2.92,11.9,7.41,11.9,3.35,0,6.11-2.49,6.11-9.89,0-6.28-2.54-11.47-7.35-11.47C473.94,211.89,471,215.25,471,221.35Z"/><path class="cls-1" d="M501.84,215.89c1.62-2.75,4-5.78,6.55-5.78a2.79,2.79,0,0,1,1.4,5.35c-.65.27-1.08.22-1.4-.11a3.25,3.25,0,0,0-2.33-1.08c-1.4,0-3.14,1.57-4.33,4.6v9.89c0,3.57.27,3.89,4.44,4.22v1.41H493.73V233c3.35-.33,3.74-.65,3.74-4.22V217.57c0-3.57-.22-3.78-3.36-4.16v-1.25a32.7,32.7,0,0,0,7.62-2.16v5.89Z"/><path class="cls-1" d="M543.91,234.39V233c3.19-.33,3.78-.54,3.78-4.38v-9c0-3.84-1.35-6.27-4.76-6.27-1.94,0-4,1.13-6,2.81a12.94,12.94,0,0,1,.16,2.27v10.54c0,3.41.49,3.73,3.46,4.06v1.41H528.93V233c3.36-.33,3.84-.59,3.84-4.16v-9.3c0-4-1.41-6.22-4.76-6.22-2.1,0-4.27,1.46-5.89,2.81v12.71c0,3.51.48,3.83,3.14,4.16v1.41H513.85V233c3.56-.33,4-.65,4-4.16v-11.2c0-3.46-.16-3.73-3.3-4.21v-1.25a33.69,33.69,0,0,0,7.52-2.21v4.38c1.13-.76,2.27-1.73,4-2.71a8.08,8.08,0,0,1,4.37-1.51,6.61,6.61,0,0,1,6.06,4.49,52.47,52.47,0,0,1,4.49-3.09,7.53,7.53,0,0,1,4.11-1.4c4.16,0,6.86,3,6.86,8.27v10.44c0,3.62.39,3.83,3.52,4.16v1.41Z"/><path class="cls-1" d="M575.86,235a4.12,4.12,0,0,1-2.54-1.08,5.15,5.15,0,0,1-1.29-2.38c-2.16,1.46-4.76,3.46-6.38,3.46a6.53,6.53,0,0,1-6.49-6.59c0-2.65,1.4-4.33,4.38-5.36,3.24-1.08,7.19-2.54,8.38-3.51v-.92c0-4-1.84-6.11-4.6-6.11a3.17,3.17,0,0,0-2.43,1,9.35,9.35,0,0,0-1.57,3.57,1.54,1.54,0,0,1-1.57,1.24,2.54,2.54,0,0,1-2.32-2.32c0-.76.65-1.41,1.67-2.17a24.83,24.83,0,0,1,8.12-3.78,7,7,0,0,1,4.43,1.46c1.89,1.62,2.43,3.78,2.43,6.65v10c0,2.43,1,3.25,1.9,3.25a4.16,4.16,0,0,0,1.94-.6l.54,1.41Zm-3.94-13.62c-1.14.59-3.73,1.73-4.87,2.27-2.11,1-3.29,2-3.29,4a3.94,3.94,0,0,0,3.83,4.11,7.07,7.07,0,0,0,4.33-1.95Z"/><path class="cls-1" d="M593.6,234.33a5.21,5.21,0,0,1-2.27.7c-3.41,0-5.3-2.16-5.3-6.43V212.92H582.3l-.22-.59,1.52-1.57H586v-3.9l3.51-3.62.76.11v7.41h6.11a1.51,1.51,0,0,1-.32,2.16H590.3v13.84c0,4.38,1.79,5.19,3.19,5.19a7.25,7.25,0,0,0,3.3-.92l.49,1.41Z"/><path class="cls-1" d="M599.76,234.39V233c3.41-.33,3.79-.65,3.79-4.33V217.52c0-3.36-.16-3.63-3.41-4.11v-1.3a33.28,33.28,0,0,0,7.68-2.11v18.65c0,3.68.38,4,3.84,4.33v1.41Zm2.87-31.74a2.78,2.78,0,0,1,2.76-2.81,2.7,2.7,0,0,1,2.7,2.81,2.76,2.76,0,0,1-2.76,2.75A2.83,2.83,0,0,1,602.63,202.65Z"/><path class="cls-1" d="M638.47,222.17c0,8.7-6.37,12.86-11.73,12.86a11.71,11.71,0,0,1-11.84-11.95c0-8.92,6.92-13,11.9-13A11.72,11.72,0,0,1,638.47,222.17Zm-18.54-.82c0,6.82,2.92,11.9,7.41,11.9,3.35,0,6.11-2.49,6.11-9.89,0-6.28-2.54-11.47-7.35-11.47C622.85,211.89,619.93,215.25,619.93,221.35Z"/><path class="cls-1" d="M657.89,234.39V233c3.19-.33,3.57-.76,3.57-4.49v-9c0-3.73-1.3-6.16-4.92-6.16-2.16,0-4.27,1.35-5.89,2.76v12.7c0,3.68.32,3.89,3.51,4.22v1.41H642.43V233c3.68-.38,4-.65,4-4.22V217.62c0-3.46-.33-3.67-3.25-4.21v-1.25a34.89,34.89,0,0,0,7.52-2.16v4.27c1.08-.81,2.26-1.62,3.62-2.54a8.3,8.3,0,0,1,4.48-1.62c4.33,0,7,3,7,8.22v10.43c0,3.68.32,3.89,3.46,4.22v1.41Z"/><path class="cls-1" d="M181.58,296.13a4.1,4.1,0,0,1-2.54-1.08,5.17,5.17,0,0,1-1.3-2.38c-2.16,1.46-4.76,3.46-6.38,3.46a6.53,6.53,0,0,1-6.49-6.59c0-2.65,1.41-4.33,4.38-5.36,3.25-1.08,7.19-2.54,8.38-3.51v-.92c0-3.94-1.83-6.11-4.59-6.11a3.15,3.15,0,0,0-2.43,1,9.2,9.2,0,0,0-1.57,3.57,1.54,1.54,0,0,1-1.57,1.24,2.55,2.55,0,0,1-2.33-2.32c0-.76.65-1.41,1.68-2.17a24.76,24.76,0,0,1,8.11-3.78,7.06,7.06,0,0,1,4.43,1.46c1.9,1.62,2.44,3.78,2.44,6.65v10c0,2.44,1,3.25,1.89,3.25a4.06,4.06,0,0,0,1.95-.6l.54,1.41Zm-4-13.62c-1.13.59-3.73,1.73-4.86,2.27-2.11,1-3.3,2-3.3,4a3.94,3.94,0,0,0,3.84,4.11,7,7,0,0,0,4.32-1.95Z"/><path class="cls-1" d="M203.53,295.49v-1.41c3.19-.32,3.57-.76,3.57-4.49v-9c0-3.73-1.3-6.16-4.92-6.16-2.16,0-4.27,1.35-5.89,2.76v12.7c0,3.68.32,3.9,3.51,4.22v1.41H188.07v-1.41c3.68-.38,4-.65,4-4.22V278.72c0-3.46-.33-3.67-3.25-4.21v-1.25a34.73,34.73,0,0,0,7.52-2.16v4.27c1.08-.81,2.27-1.62,3.62-2.54a8.33,8.33,0,0,1,4.49-1.62c4.32,0,7,3,7,8.22v10.43c0,3.68.33,3.9,3.46,4.22v1.41Z"/><path class="cls-1" d="M244,294.08a57.09,57.09,0,0,0-8.38,2.05v-3.51l-3.3,1.95a9.93,9.93,0,0,1-4.21,1.56c-4.33,0-10-3.94-10-11.51s6.55-13.41,13.9-13.41a11.27,11.27,0,0,1,3.62.65v-7.73c0-3.52-.27-3.68-4.16-3.95v-1.35a51,51,0,0,0,8.43-1.84v32.28c0,2.81.38,3.08,2.38,3.3l1.73.16ZM235.65,276a6.79,6.79,0,0,0-5.57-2.76c-2.54,0-7.08,2.06-7.08,9.9,0,6.43,3.95,9.57,7.46,9.57a9.27,9.27,0,0,0,5.19-1.84Z"/><path class="cls-1" d="M291.67,286.56a62.2,62.2,0,0,1-3.08,8.33,49.69,49.69,0,0,1-9.95,1.41c-13.46,0-19.36-9.3-19.36-17.9,0-11.41,8.76-18.87,20.82-18.87a42.69,42.69,0,0,1,9.57,1.46c.43,3,.76,5.24,1.08,8.11l-1.57.43c-1.46-5.73-4.7-8-10.54-8-9,0-13.84,7.62-13.84,15.84,0,10.11,5.94,17,14.16,17,5.52,0,8.44-3,11.14-8.33Z"/><path class="cls-1" d="M318.43,283.27c0,8.7-6.37,12.86-11.73,12.86a11.71,11.71,0,0,1-11.84-11.95c0-8.92,6.92-13,11.9-13A11.72,11.72,0,0,1,318.43,283.27Zm-18.54-.82c0,6.82,2.92,11.9,7.41,11.9,3.35,0,6.11-2.49,6.11-9.89,0-6.28-2.54-11.47-7.36-11.47C302.81,273,299.89,276.35,299.89,282.45Z"/><path class="cls-1" d="M352,295.49v-1.41c3.19-.32,3.79-.54,3.79-4.38v-9c0-3.84-1.36-6.27-4.76-6.27-1.95,0-4,1.13-6.06,2.81a12.94,12.94,0,0,1,.16,2.27V290c0,3.41.49,3.74,3.46,4.06v1.41H337v-1.41c3.36-.32,3.84-.59,3.84-4.16v-9.3c0-3.95-1.4-6.22-4.75-6.22-2.11,0-4.28,1.46-5.9,2.81v12.71c0,3.51.49,3.84,3.14,4.16v1.41H321.9v-1.41c3.57-.32,4.05-.65,4.05-4.16v-11.2c0-3.46-.16-3.73-3.29-4.21v-1.25a33.77,33.77,0,0,0,7.51-2.21v4.38c1.14-.76,2.27-1.73,3.95-2.71a8.08,8.08,0,0,1,4.38-1.51,6.61,6.61,0,0,1,6.05,4.49,52.47,52.47,0,0,1,4.49-3.09,7.56,7.56,0,0,1,4.11-1.4c4.16,0,6.86,3,6.86,8.27v10.44c0,3.62.39,3.84,3.52,4.16v1.41Z"/><path class="cls-1" d="M378.84,272.07a5.59,5.59,0,0,1,2.64-.86c6,0,9.58,4.92,9.58,10.22,0,8.16-6.44,13.41-13.47,14.7a8.87,8.87,0,0,1-3.73-1v7.08c0,4.11.38,4.44,4.54,4.76v1.46H365.64V307c3.46-.32,3.95-.65,3.95-4.22V278.35c0-3.52-.22-3.63-3.57-4.06V273a40.8,40.8,0,0,0,7.84-2.32v4.27Zm-5,19.31a7.4,7.4,0,0,0,5.08,2.11c4.54,0,7.57-3.9,7.57-9.95,0-5.84-3.35-9.09-7.24-9.09-1.73,0-3.95,1.19-5.41,2.33Z"/><path class="cls-1" d="M421.06,294.19a39.75,39.75,0,0,0-4.16.86c-1.41.38-2.76.81-3.78,1.08l-.33-.32V292a42,42,0,0,1-4,2.81,7.71,7.71,0,0,1-4.16,1.35c-3.63,0-6.71-2.21-6.71-8.05v-10.6c0-2.86-.43-3.14-1.78-3.46l-1.52-.32v-1.25c1.14-.05,2.49-.21,3.9-.38s3-.43,3.84-.59c-.16,1.68-.16,4.22-.16,7.84v7.3c0,4.81,2.32,6.11,4.75,6.11a8.38,8.38,0,0,0,5.84-2.6V277.48c0-2.86-.49-3.19-2.27-3.46l-1.95-.32v-1.25c1.47-.05,3.3-.21,4.87-.43s2.81-.38,3.62-.54v18.06c0,2.7.44,3,2.54,3.19l1.46,0Z"/><path class="cls-1" d="M434.21,295.43a5.29,5.29,0,0,1-2.28.7c-3.4,0-5.3-2.16-5.3-6.43V274H422.9l-.21-.59,1.51-1.57h2.43V268l3.52-3.62.76.11v7.41H437a1.51,1.51,0,0,1-.33,2.16h-5.78v13.84c0,4.38,1.78,5.19,3.19,5.19a7.2,7.2,0,0,0,3.29-.92l.49,1.41Z"/><path class="cls-1" d="M459.62,290.94c-3.41,4.22-7.14,5.19-8.82,5.19-6.65,0-10.54-5.4-10.54-11.51a14,14,0,0,1,3.57-9.46,11.14,11.14,0,0,1,7.89-4h.06a8.4,8.4,0,0,1,8.11,8.22c0,1.08-.22,1.51-1.25,1.73-.86.16-7.67.7-14.16.92,0,7.35,4.32,10.38,8.11,10.38a8.91,8.91,0,0,0,6.21-2.71Zm-14.87-11.08c3,0,6.05-.05,9.19-.16,1,0,1.3-.27,1.3-1.08.05-2.81-1.79-5.41-4.81-5.41C448,273.21,445.56,275.48,444.75,279.86Z"/><path class="cls-1" d="M471.13,277c1.62-2.75,3.95-5.78,6.55-5.78a2.79,2.79,0,0,1,1.4,5.35c-.65.27-1.08.22-1.4-.11a3.23,3.23,0,0,0-2.33-1.08c-1.4,0-3.14,1.57-4.32,4.6v9.89c0,3.57.27,3.9,4.43,4.22v1.41H463v-1.41c3.35-.32,3.74-.65,3.74-4.22V278.67c0-3.57-.22-3.78-3.36-4.16v-1.25A32.92,32.92,0,0,0,471,271.1V277Z"/><path class="cls-1" d="M514.12,268.5c-.92-3.4-2.38-7.13-7.08-7.13a5.62,5.62,0,0,0-6,5.89c0,3.95,2.59,5.84,6.86,8s9.36,4.71,9.36,10.82c0,5.68-4.82,10.22-12,10.22a18.73,18.73,0,0,1-5.29-.81,17.12,17.12,0,0,1-2.71-1.14c-.38-1.13-1.08-5.79-1.46-8.38l1.62-.38c.81,3.3,3.25,8.76,8.87,8.76,4.11,0,6.49-2.54,6.49-6.49s-3-5.89-7-8.05c-3.46-1.9-8.92-4.55-8.92-10.66,0-5.19,4.16-9.62,11.14-9.62a22.71,22.71,0,0,1,6.81,1.24c.22,1.9.49,4.06.92,7.46Z"/><path class="cls-1" d="M541.21,290.62c-2.38,3.14-6,5.51-9.14,5.51-6.81,0-10.87-5.51-10.87-11.3a12.87,12.87,0,0,1,5.47-10.54,14.41,14.41,0,0,1,8.05-3.08h.06a7.72,7.72,0,0,1,4.86,1.46,1.89,1.89,0,0,1,.87,1.62,2.64,2.64,0,0,1-1.79,2.33c-.32,0-.59-.17-1-.6a7.88,7.88,0,0,0-5.45-2.22c-3.57,0-6.65,3-6.65,8.65,0,7.52,5.07,10,8.16,10,2.32,0,4-.65,6.54-3Z"/><path class="cls-1" d="M543.8,295.49v-1.41c3.41-.32,3.79-.65,3.79-4.33V278.62c0-3.36-.16-3.63-3.4-4.11v-1.3a33.33,33.33,0,0,0,7.67-2.11v18.65c0,3.68.38,4,3.84,4.33v1.41Zm2.87-31.74a2.78,2.78,0,0,1,2.76-2.81,2.7,2.7,0,0,1,2.7,2.81,2.76,2.76,0,0,1-2.76,2.75A2.83,2.83,0,0,1,546.67,263.75Z"/><path class="cls-1" d="M577.92,290.94c-3.4,4.22-7.14,5.19-8.81,5.19-6.65,0-10.54-5.4-10.54-11.51a14,14,0,0,1,3.56-9.46,11.16,11.16,0,0,1,7.9-4h.05a8.4,8.4,0,0,1,8.11,8.22c0,1.08-.21,1.51-1.24,1.73-.87.16-7.68.7-14.17.92.06,7.35,4.33,10.38,8.11,10.38a9,9,0,0,0,6.22-2.71Zm-14.87-11.08c3,0,6.06-.05,9.2-.16,1,0,1.29-.27,1.29-1.08.06-2.81-1.78-5.41-4.81-5.41C566.3,273.21,563.86,275.48,563.05,279.86Z"/><path class="cls-1" d="M596.58,295.49v-1.41c3.19-.32,3.57-.76,3.57-4.49v-9c0-3.73-1.3-6.16-4.92-6.16-2.17,0-4.28,1.35-5.9,2.76v12.7c0,3.68.33,3.9,3.52,4.22v1.41H581.11v-1.41c3.68-.38,3.95-.65,3.95-4.22V278.72c0-3.46-.33-3.67-3.24-4.21v-1.25a34.81,34.81,0,0,0,7.51-2.16v4.27c1.08-.81,2.27-1.62,3.63-2.54a8.27,8.27,0,0,1,4.48-1.62c4.33,0,7,3,7,8.22v10.43c0,3.68.32,3.9,3.46,4.22v1.41Z"/><path class="cls-1" d="M631.13,290.62c-2.38,3.14-6,5.51-9.14,5.51-6.81,0-10.87-5.51-10.87-11.3a12.89,12.89,0,0,1,5.46-10.54,14.46,14.46,0,0,1,8.06-3.08h.05a7.75,7.75,0,0,1,4.87,1.46,1.9,1.9,0,0,1,.86,1.62,2.65,2.65,0,0,1-1.78,2.33c-.32,0-.59-.17-1-.6a7.88,7.88,0,0,0-5.46-2.22c-3.56,0-6.65,3-6.65,8.65,0,7.52,5.09,10,8.16,10,2.33,0,4.06-.65,6.55-3Z"/><path class="cls-1" d="M653.35,290.94c-3.41,4.22-7.14,5.19-8.81,5.19-6.65,0-10.55-5.4-10.55-11.51a14,14,0,0,1,3.57-9.46,11.16,11.16,0,0,1,7.9-4h0a8.4,8.4,0,0,1,8.11,8.22c0,1.08-.21,1.51-1.24,1.73-.87.16-7.68.7-14.17.92.06,7.35,4.33,10.38,8.11,10.38a9,9,0,0,0,6.22-2.71Zm-14.87-11.08c3,0,6.06-.05,9.19-.16,1,0,1.3-.27,1.3-1.08,0-2.81-1.78-5.41-4.81-5.41C641.73,273.21,639.29,275.48,638.48,279.86Z"/><path class="cls-1" d="M670.87,278.29c-1.08-3.24-2.92-5.35-5.57-5.35a3.46,3.46,0,0,0-3.51,3.73c0,2.38,2.16,3.62,4.54,4.65,4.11,1.68,6.87,3.62,6.87,7.35,0,4.92-4.6,7.46-8.92,7.46a10.54,10.54,0,0,1-6.17-1.83,25.11,25.11,0,0,1-.92-6.38l1.46-.27c.92,3.56,3.35,6.7,6.6,6.7a3.73,3.73,0,0,0,3.83-3.78c0-2.38-1.56-3.68-4.26-4.93-3.25-1.46-6.76-3.29-6.76-7.4,0-3.79,3.24-7,8.21-7a11.13,11.13,0,0,1,4.76,1,29.17,29.17,0,0,1,1.19,5.73Z"/><path class="cls-2" d="M96.15,237.7,81.71,270.48l15.72,14.3A7.89,7.89,0,0,1,109.77,294a8,8,0,0,1-.77,1.34l6.7,6.1c.64-.57,1.29-1.14,1.91-1.74a65.24,65.24,0,0,0,18.13-31.08l-34.38-32.28a7.83,7.83,0,0,1-5.21,1.37m-54,1.62L62.85,282.9a13.47,13.47,0,0,1,7.47-.5c.38.09.71.24,1.08.36l5.68-12.92-34.15-31.1a8.34,8.34,0,0,1-.75.58M92,236a7.86,7.86,0,0,1-2.69-4.1l-42.86,1.13s0,.06,0,.09a10.08,10.08,0,0,1-1.64,3.68l33.44,30.45Zm-57.66,4.82a10.11,10.11,0,0,1-7.54-7.27L9.41,234a65.65,65.65,0,0,0-2.23,25.54L57,287a13.43,13.43,0,0,1,3.92-3.24L40.32,240.33a10.11,10.11,0,0,1-6,.52m65,57.14a7.92,7.92,0,0,1-4-10.44c.12-.25.27-.47.41-.71L80.58,273l-5.16,11.72a13.48,13.48,0,0,1,5.15,13.76c-.1.44-.28.84-.42,1.27L101,311.28a64.86,64.86,0,0,0,12.65-8.12l-6.55-6a7.87,7.87,0,0,1-7.78.8M26.62,228.75a9.92,9.92,0,0,1,1.52-3.48l-10.26-9.35a65.09,65.09,0,0,0-7.08,13.84l15.75-.41c0-.2,0-.4.07-.6m5.05-6.66-7-14.7a68.45,68.45,0,0,0-5.29,6.35l10.5,9.56a11,11,0,0,1,1.76-1.21m72.64,5.21,28.16-.74a65.55,65.55,0,0,0-12.92-19.49,67.71,67.71,0,0,0-7.1-6.4L102.16,224a7.92,7.92,0,0,1,2.15,3.26M54.2,292.65a14.5,14.5,0,0,1,.7-2.11l-47-25.88A65.45,65.45,0,0,0,56.74,316l3.89-8.82a13.46,13.46,0,0,1-6.43-14.56m10.63,16.16L61.23,317a66.36,66.36,0,0,0,15.8.76l-4.58-9.65a13.27,13.27,0,0,1-7.62.72M38.71,221.05a10.14,10.14,0,0,1,7.69,7.78l42.9-1.13a7.88,7.88,0,0,1,.84-1.92l-38-35.7a65.27,65.27,0,0,0-25.19,15.06c-.22.21-.43.44-.65.65l7.34,15.5a10,10,0,0,1,5.09-.24m95.38,9.7-29.51.78v.05a7.72,7.72,0,0,1-1,2.36l33,31a65.75,65.75,0,0,0-2.47-34.15m-36-8.66L108.72,198a65.51,65.51,0,0,0-52.95-9l36.6,34.37a7.77,7.77,0,0,1,5.74-1.31m-23.77,85,4.93,10.39a65.47,65.47,0,0,0,17-4.18l-18-9.89a13.57,13.57,0,0,1-4,3.68"/><path class="cls-1" d="M342.68,82.63V79.38c7.31-.93,8.36-1.86,6.84-6.38s-3.82-10.8-6.37-17.87H318.42c-1.85,5.22-3.59,10.09-5.1,15-2.55,7.31-1.51,8.47,7.19,9.28v3.25H295.33V79.38c7.31-1,8.94-1.74,13-11.95l24-60.93,3.6-1c7.2,20,15,42,22.4,62.21,3.71,10,5.22,11,12.76,11.72v3.25ZM331.31,20.54h-.24c-3.71,10-7.42,20.08-10.91,29.59h21.36Z"/><path class="cls-1" d="M435.3,82.63v-3c6.84-.69,8.12-1.16,8.12-9.4V50.83c0-8.24-2.9-13.46-10.21-13.46-4.18,0-8.59,2.32-13,6a27.41,27.41,0,0,1,.35,4.88V70.91c0,7.31,1,8,7.43,8.7v3H403.15v-3c7.2-.69,8.24-1.28,8.24-8.93v-20c0-8.59-3-13.35-10.1-13.35-4.64,0-9.16,3.13-12.65,6V70.68c0,7.54.93,8.24,6.62,8.93v3H370.77v-3c7.66-.69,8.71-1.39,8.71-8.93v-24c0-7.42-.35-8-7.08-9V34.93a71.09,71.09,0,0,0,16.13-4.76v9.4c2.44-1.62,5-3.71,8.47-5.91,3-1.86,5.8-3.14,9.52-3.14,5.57,0,10.56,3.48,12.88,9.52a106.31,106.31,0,0,1,9.63-6.5,16,16,0,0,1,8.7-3c9.06,0,14.74,6.38,14.74,17.76v22.4c0,7.77.93,8.24,7.55,8.93v3Z"/><path class="cls-1" d="M495.71,82.63v-3c6.73-.69,7.66-1.39,7.66-8.93V51.41c0-9.51-3.6-14.27-11.37-14.27a16.35,16.35,0,0,0-12.07,5.92V70.68c0,7.42.58,8.24,7.43,8.93v3H462.75l.12-3c7-.58,7.89-1.28,7.89-8.93V15.32c0-7.31-.23-7.89-7.89-8.59V4.06A127.31,127.31,0,0,0,479.93,0V39c4.06-4.17,10.32-8.47,16.59-8.47,9.41-.11,16,5.92,16,19.85V70.68c0,7.65.81,8.35,7.66,8.93v3Z"/><path class="cls-1" d="M560.18,72.77C552.87,81.93,544.87,84,541.27,84,527,84,518.64,72.42,518.64,59.3A29.91,29.91,0,0,1,526.3,39c4.76-5.33,11-8.47,16.94-8.47h.12c9.63,0,17.41,8.59,17.41,17.64,0,2.32-.59,3.25-2.67,3.72s-16.48,1.5-30.29,2c.11,15.78,9.16,22.28,17.29,22.28,4.64,0,9-1.85,13.23-5.8ZM540.46,34.82c-5.23,0-10.34,4.87-12.08,14.27,6.5,0,12.89-.12,19.62-.35,2.09,0,2.79-.69,2.79-2.32.11-6-3.84-11.6-10.22-11.6Z"/><path class="cls-1" d="M582.3,42.82c3.48-5.8,8.47-12.3,14-12.3,3.95,0,6.73,3,6.73,5.81A6.5,6.5,0,0,1,599.35,42c-1.38.58-2.43.47-3.13-.23-1.62-1.74-3-2.44-4.87-2.44-3,0-6.73,3.48-9.28,10V70.56c0,7.66.58,8.36,9.51,9v3H564.89v-3c7.19-.69,8-1.39,8-9v-24c0-7.66-.58-8.12-7.2-9.06V34.93a65.69,65.69,0,0,0,16.37-4.76V42.82Z"/><path class="cls-1" d="M634.93,45.61c-2.21-6.85-6.27-11.49-11.95-11.49-4.42,0-7.55,3.48-7.55,8,0,5.1,4.64,7.89,9.87,10.09C634,55.82,639.92,60,639.92,68c0,10.56-9.86,16-19.15,16-5.92,0-11.25-2.2-13.35-3.94-.8-1.63-1.85-9.52-1.85-13.7l3-.58c2.09,7.66,7.31,14.39,14.27,14.39a8.09,8.09,0,0,0,8.24-8.12c0-5.11-3.36-7.89-9.17-10.56-7-3.25-14.51-7.08-14.51-16,0-8.12,7-15,17.64-15a25.13,25.13,0,0,1,10.33,2A86.26,86.26,0,0,1,638,44.91Z"/><path class="cls-1" d="M666.91,82.51A11.73,11.73,0,0,1,662,84c-7.32,0-11.38-4.64-11.38-13.81V36.44h-8l-.46-1.16,3.13-3.37h5.34V23.44l7.55-7.66,1.62.23v15.9h13.11a3.3,3.3,0,0,1-.69,4.53H659.83V66.27c0,9.4,3.83,11.14,6.73,11.14a16.45,16.45,0,0,0,7.19-2l1,3Z"/><path class="cls-2" d="M79.26,10.45c-7,.46-9.63,2.08-10.21,6.84-.35,3.13-.58,8.13-.58,18.8v9.52c0,13.69-2.09,23.56-8.82,30.64-5.34,5.57-13.11,8-20.77,8-6.73,0-13.46-1.62-18.57-5.57-7-5.33-10.21-14-10.21-27.61V22.16c0-10.44-.93-10.9-10.1-11.71V7.19H30.06v3.26C20.89,11,20,11.72,20,22.16V48.51c0,18.68,7.43,29.36,21.82,29.36,16.71,0,21.93-13.93,21.93-33.07V36.09c0-10.67-.35-15.55-.81-19.14-.7-4.53-3.13-5.93-11.26-6.5V7.19H79.26Z"/><path class="cls-2" d="M141.42,82.63V79.38c9.4-.93,9.86-1.51,9.75-13.81l-.35-47.35h-.47L122,81.82h-2.32l-26-62h-.23L91.75,52.92c-.47,9.52-.47,14.62-.35,19.26.23,5.58,3,6.39,10.68,7.2v3.25H75V79.38c6.73-.81,9-2.09,9.86-7,.58-4.06,1.28-9.17,2.21-21.24L88.73,27c1-15.09.46-15.55-10.09-16.59V7.19h19l26.46,58,26.8-58h19.73v3.26c-10.21.92-11,1.16-10.67,13.11l1.16,42c.35,12.3.69,12.88,10.79,13.81v3.25Z"/><path class="cls-2" d="M208.62,84a9.46,9.46,0,0,1-5.45-2.2,12.07,12.07,0,0,1-2.79-5.23C195.74,79.73,190.17,84,186.69,84a14,14,0,0,1-13.93-14.15c0-5.69,3-9.29,9.4-11.5,7-2.32,15.44-5.45,18-7.54V48.74c0-8.35-3.94-13.11-9.75-13.11A6.55,6.55,0,0,0,185.18,38c-1.51,1.51-2.55,4.06-3.48,7.54a3.23,3.23,0,0,1-3.37,2.79c-2.08,0-5.1-2.32-5.1-5,0-1.74,1.51-3,3.71-4.64,3.25-2.32,10.8-6.85,17.41-8.13a15.16,15.16,0,0,1,9.52,3.14c4.06,3.36,5.22,8.12,5.22,14.16V69.4c0,5.22,2.09,7,4.06,7a8.79,8.79,0,0,0,4.18-1.28l1.16,3Zm-8.47-29.24c-2.44,1.27-8,3.71-10.44,4.87-4.53,2.09-7.08,4.29-7.08,8.47a8.5,8.5,0,0,0,8.24,8.94,16.59,16.59,0,0,0,9.28-4.18Z"/><path class="cls-2" d="M250.35,45.61c-2.2-6.85-6.27-11.49-11.95-11.49-4.41,0-7.55,3.48-7.55,8,0,5.1,4.64,7.89,9.87,10.09,8.7,3.6,14.62,7.78,14.62,15.79,0,10.56-9.86,16-19.15,16-5.92,0-11.26-2.2-13.34-3.94C222,78.45,221,70.56,221,66.38l3-.58c2.09,7.66,7.32,14.39,14.28,14.39a8.1,8.1,0,0,0,8.24-8.12c0-5.11-3.37-7.89-9.17-10.56-7-3.25-14.5-7.08-14.5-16,0-8.12,7-15,17.63-15a25.17,25.17,0,0,1,10.33,2,87.63,87.63,0,0,1,2.56,12.42Z"/><path class="cls-2" d="M287.14,45.61c-2.2-6.85-6.26-11.49-11.95-11.49-4.41,0-7.54,3.48-7.54,8,0,5.1,4.64,7.89,9.86,10.09,8.71,3.6,14.62,7.78,14.62,15.79,0,10.56-9.86,16-19.14,16-5.92,0-11.26-2.2-13.35-3.94-.81-1.63-1.86-9.52-1.86-13.7l3-.58c2.09,7.66,7.31,14.39,14.28,14.39a8.09,8.09,0,0,0,8.23-8.12c0-5.11-3.36-7.89-9.16-10.56-7-3.25-14.51-7.08-14.51-16,0-8.12,7-15,17.64-15a25.21,25.21,0,0,1,10.33,2,87.61,87.61,0,0,1,2.55,12.42Z"/><line class="cls-3" x1="7.47" y1="140.39" x2="673.2" y2="140.39"/></g></g></svg>